<?xml version="1.0" encoding="UTF-8"?>
<svg width="64" height="64" viewBox="0 0 64 64" xmlns="http://www.w3.org/2000/svg">
  <defs>
    <linearGradient id="iconGradient" x1="0%" y1="0%" x2="100%" y2="100%">
      <stop offset="0%" style="stop-color:#667eea" />
      <stop offset="100%" style="stop-color:#764ba2" />
    </linearGradient>
  </defs>
  
  <!-- Modern hexagonal background -->
  <polygon points="32,4 50,16 50,48 32,60 14,48 14,16" fill="url(#iconGradient)"/>
  
  <!-- Inner hexagon -->
  <polygon points="32,12 42,20 42,44 32,52 22,44 22,20" fill="white" opacity="0.2"/>
  
  <!-- Central design - stylized P and Z -->
  <g transform="translate(32, 32)">
    <!-- P shape -->
    <path d="M-8,-12 L-8,12 M-8,-12 L2,-12 Q6,-12 6,-6 Q6,0 2,0 L-8,0" stroke="white" stroke-width="3" fill="none" stroke-linecap="round"/>
    <!-- Z shape -->
    <path d="M2,2 L12,2 L2,12 L12,12" stroke="white" stroke-width="3" fill="none" stroke-linecap="round"/>
  </g>
  
  <!-- Small accent dots -->
  <circle cx="20" cy="20" r="2" fill="white" opacity="0.6"/>
  <circle cx="44" cy="44" r="2" fill="white" opacity="0.6"/>
</svg>